<svg width="512" height="512" viewBox="0 0 512 512" fill="none" xmlns="http://www.w3.org/2000/svg">
<g clip-path="url(#clip0_11_321)">
<rect width="512" height="512" rx="56" fill="#2E2E2E"/>
<path d="M152.439 353.734C142.598 353.734 133.212 352.549 124.282 350.18C115.534 347.628 107.697 343.801 100.771 338.698C93.846 333.595 88.2873 327.307 84.0956 319.835C80.0861 312.363 77.9902 303.524 77.808 293.318C77.808 291.678 78.3547 290.311 79.4482 289.217C80.5417 287.941 81.9086 287.304 83.5488 287.304H109.519C111.889 287.304 113.62 287.941 114.714 289.217C115.989 290.493 116.992 292.224 117.721 294.411C118.632 300.972 120.728 306.349 124.008 310.54C127.289 314.55 131.389 317.557 136.31 319.562C141.413 321.384 147.063 322.296 153.259 322.296C164.741 322.296 173.489 318.559 179.503 311.087C185.7 303.615 188.798 293.227 188.798 279.922V191.896H96.1241C94.1193 191.896 92.4791 191.258 91.2033 189.982C90.1098 188.706 89.5631 187.157 89.5631 185.335V166.198C89.5631 164.376 90.1098 162.827 91.2033 161.551C92.4791 160.275 94.1193 159.637 96.1241 159.637H221.056C223.061 159.637 224.701 160.275 225.977 161.551C227.253 162.827 227.891 164.467 227.891 166.472V281.016C227.891 296.143 224.701 309.174 218.323 320.109C212.126 331.044 203.378 339.427 192.079 345.259C180.961 350.909 167.748 353.734 152.439 353.734ZM275.552 351C273.73 351 272.18 350.362 270.905 349.086C269.629 347.811 268.991 346.261 268.991 344.439V166.472C268.991 164.467 269.629 162.827 270.905 161.551C272.18 160.275 273.73 159.637 275.552 159.637H296.602C299.153 159.637 300.976 160.275 302.069 161.551C303.345 162.645 304.165 163.465 304.53 164.011L383.262 286.483V166.472C383.262 164.467 383.809 162.827 384.902 161.551C386.178 160.275 387.818 159.637 389.823 159.637H412.786C414.791 159.637 416.431 160.275 417.707 161.551C418.983 162.827 419.621 164.467 419.621 166.472V344.166C419.621 346.17 418.983 347.811 417.707 349.086C416.431 350.362 414.882 351 413.06 351H391.736C389.185 351 387.362 350.362 386.269 349.086C385.175 347.811 384.355 346.99 383.809 346.626L305.35 226.888V344.439C305.35 346.261 304.712 347.811 303.436 349.086C302.161 350.362 300.52 351 298.516 351H275.552Z" fill="white"/>
</g>
<defs>
<clipPath id="clip0_11_321">
<rect width="512" height="512" fill="white"/>
</clipPath>
</defs>
</svg>
