<svg width="512" height="512" viewBox="0 0 512 512" fill="none" xmlns="http://www.w3.org/2000/svg">
<g clip-path="url(#clip0_11_321)">
<rect width="512" height="512" rx="56" fill="#2E2E2E"/>
<path d="M60.664 357C58.552 357 56.824 356.328 55.48 354.984C54.136 353.64 53.464 352.008 53.464 350.088V162.6C53.464 160.488 54.136 158.76 55.48 157.416C56.824 156.072 58.552 155.4 60.664 155.4H83.416C86.104 155.4 88.12 156.168 89.464 157.704C90.808 159.048 91.672 160.104 92.056 160.872L147.64 264.552L203.8 160.872C204.184 160.104 205.048 159.048 206.392 157.704C207.736 156.168 209.752 155.4 212.44 155.4H234.904C237.016 155.4 238.744 156.072 240.088 157.416C241.432 158.76 242.104 160.488 242.104 162.6V350.088C242.104 352.008 241.432 353.64 240.088 354.984C238.744 356.328 237.016 357 234.904 357H210.712C208.6 357 206.872 356.328 205.528 354.984C204.376 353.64 203.8 352.008 203.8 350.088V225.384L163.48 302.28C162.52 304.008 161.272 305.544 159.736 306.888C158.2 308.04 156.184 308.616 153.688 308.616H141.88C139.192 308.616 137.08 308.04 135.544 306.888C134.2 305.544 133.048 304.008 132.088 302.28L91.768 225.384V350.088C91.768 352.008 91.096 353.64 89.752 354.984C88.408 356.328 86.776 357 84.856 357H60.664ZM293.814 357C291.894 357 290.262 356.328 288.918 354.984C287.574 353.64 286.902 352.008 286.902 350.088V162.6C286.902 160.488 287.574 158.76 288.918 157.416C290.262 156.072 291.894 155.4 293.814 155.4H315.99C318.678 155.4 320.598 156.072 321.75 157.416C323.094 158.568 323.958 159.432 324.342 160.008L407.286 289.032V162.6C407.286 160.488 407.862 158.76 409.014 157.416C410.358 156.072 412.086 155.4 414.198 155.4H438.39C440.502 155.4 442.23 156.072 443.574 157.416C444.918 158.76 445.59 160.488 445.59 162.6V349.8C445.59 351.912 444.918 353.64 443.574 354.984C442.23 356.328 440.598 357 438.678 357H416.214C413.526 357 411.606 356.328 410.454 354.984C409.302 353.64 408.438 352.776 407.862 352.392L325.206 226.248V350.088C325.206 352.008 324.534 353.64 323.19 354.984C321.846 356.328 320.118 357 318.006 357H293.814Z" fill="white"/>
</g>
<defs>
<clipPath id="clip0_11_321">
<rect width="512" height="512" fill="white"/>
</clipPath>
</defs>
</svg>
